<?xml version="1.0" encoding="utf-8"?>
<!-- Uploaded to: SVG Repo, www.svgrepo.com, Generator: SVG Repo Mixer Tools -->
<svg width="800px" height="800px" viewBox="0 -37.49 392 392" xmlns="http://www.w3.org/2000/svg"><defs><style>.a{fill:#ffffff;}.b{fill:#211715;}.c{fill:#a6a2a1;}.d{fill:#f2635f;}.e{fill:#d9d9d9;}.f{fill:#b5886a;}</style></defs><path class="a" d="M383.742,12.809c0-2.624-2.61-4.747-5.831-4.745-35.064.028-320.528.223-363.774.242-3.159,0-5.715,2.083-5.72,4.657C8.37,39.071,8.05,225.149,8,251.019c5.834,0,370.467.292,376,.292C383.975,222.243,383.778,37.271,383.742,12.809Z"/><path class="b" d="M391.732,6.174A6.125,6.125,0,0,0,385.652,0C349.1.036,51.484.289,6.4.314A6.015,6.015,0,0,0,.435,6.374C.385,40.345.052,276.8,0,310.459a6.127,6.127,0,0,0,6.071,6.19c36.661.042,343.446.331,379.841.375A6.129,6.129,0,0,0,392,310.839C391.974,273.016,391.768,38,391.732,6.174ZM8,251.019c.05-25.87.37-211.948.417-238.056.005-2.574,2.561-4.656,5.72-4.657,43.246-.019,328.71-.214,363.774-.242,3.221,0,5.828,2.121,5.832,4.745.035,24.462.232,209.434.257,238.5C378.467,251.311,13.834,251.019,8,251.019Z"/><path class="c" d="M351.751,274.353h-7.285a2.028,2.028,0,0,0-2,2c0,1.758-.01,3.516-.01,5.274a2,2,0,1,0,4,0c0-1.758.009-3.516.01-5.274l-2,2h7.285a2,2,0,0,0,0-4Z"/><path class="c" d="M364.064,278.353h7.285l-2-2c0,1.758.009,3.516.009,5.274a2,2,0,0,0,4,0c0-1.758-.009-3.516-.009-5.274a2.03,2.03,0,0,0-2-2h-7.285a2,2,0,0,0,0,4Z"/><path class="c" d="M324.407,277.371c-8.381-.011-16.762-.288-25.143-.293a2.028,2.028,0,0,0-2,2q0,9.33-.01,18.66a2.029,2.029,0,0,0,2,2c7.189.006,14.38.119,21.569.178,1.194.01,2.389.025,3.584.026a2.029,2.029,0,0,0,2-2V279.371c0-2.574-4-2.578-4,0v18.571l2-2c-7.171-.006-14.343-.12-21.514-.179-1.213-.009-2.426-.024-3.639-.025l2,2q0-9.33.01-18.66l-2,2c8.381.005,16.762.282,25.143.293C326.981,281.374,326.985,277.374,324.407,277.371Z"/><path class="c" d="M26.256,285.383c0-2.909,0-5.817,0-6.746a2.476,2.476,0,0,0-2.484-2.477h-2.4a2.482,2.482,0,0,0-2.483,2.527c.034,2,.034,15.538,0,17.542a2.482,2.482,0,0,0,2.483,2.527h2.4a2.476,2.476,0,0,0,2.484-2.477C26.257,295.35,26.256,288.291,26.256,285.383Z"/><path class="c" d="M39.087,285.383c0-2.909,0-5.817,0-6.746A2.475,2.475,0,0,0,36.6,276.16h-2.4a2.484,2.484,0,0,0-2.484,2.527c.034,2,.034,15.538,0,17.542a2.484,2.484,0,0,0,2.484,2.527h2.4a2.475,2.475,0,0,0,2.483-2.477C39.087,295.35,39.087,288.291,39.087,285.383Z"/><path class="c" d="M82.981,290.837V279.2a1.369,1.369,0,0,0-1.374-1.37H80.281a1.375,1.375,0,0,0-1.374,1.4c.019,1.109.019,15.353,0,16.462a1.375,1.375,0,0,0,1.374,1.4h1.326a1.369,1.369,0,0,0,1.374-1.37Z"/><path class="c" d="M62.54,295.6a.88.88,0,0,0,1.381.6c2.245-1.436,10.295-7.172,10.891-7.536a1.744,1.744,0,0,0,.759-1.2,1.794,1.794,0,0,0-.759-1.2c-.6-.364-8.646-6.1-10.891-7.536a.88.88,0,0,0-1.381.6C62.535,281,62.535,293.933,62.54,295.6Z"/><path class="c" d="M113.113,293.217c-.79,0-3.361-.008-5.213-.008a2.055,2.055,0,0,1-1.937-1.9v-8.452a2.188,2.188,0,0,1,1.963-1.948c1.4,0,3.823-.025,5.214-.025,1.356-.881,6.578-4.7,10.19-7.065a1.226,1.226,0,0,1,1.9,1.028c-.013,5.66-.058,19.772-.073,25.265a1.232,1.232,0,0,1-1.969.985C119.993,298.724,113.964,293.818,113.113,293.217Z"/><path class="c" d="M351.751,297.451h-7.285l2,2c0-1.757-.01-3.515-.01-5.273a2,2,0,0,0-4,0c0,1.758.009,3.516.01,5.273a2.028,2.028,0,0,0,2,2h7.285a2,2,0,0,0,0-4Z"/><path class="c" d="M364.064,301.451h7.285a2.03,2.03,0,0,0,2-2c0-1.757.009-3.515.009-5.273a2,2,0,0,0-4,0c0,1.758-.009,3.516-.009,5.273l2-2h-7.285a2,2,0,0,0,0,4Z"/><path class="c" d="M129.543,283.152a.724.724,0,0,1,.859-.708c2.192.416,4.156,2.432,4.156,5.94a4.776,4.776,0,0,1-4.175,5.131.727.727,0,0,1-.84-.708Z"/><path class="c" d="M143.391,288.029c0-7.273-5.881-13.463-12.018-14.434a1.221,1.221,0,0,0-1.411,1.155c-.017.443-.039.908-.056,1.34a1.205,1.205,0,0,0,.936,1.216c3.351.832,8.291,5.619,8.334,10.671-.042,5.051-4.983,9.838-8.334,10.67a1.207,1.207,0,0,0-.936,1.216c.017.432.039.9.056,1.341a1.221,1.221,0,0,0,1.411,1.155A14.95,14.95,0,0,0,143.391,288.029Z"/><path class="d" d="M166.7,250.745c-5.784,0-147.174-.186-158.672-.186,0,7.343-.031,5.614-.031,11.87,5.066,0,153.97.13,158.7.13Z"/><path class="c" d="M384,250.745c-11.841,0-180.96-.186-204.5-.186v11.87c10.37,0,194.81.13,204.5.13Z"/><path class="a" d="M173.235,241.578c-7.113,0-14.226,5.589-14.226,14.9,0,11.642,8.412,15.035,14.226,15.035,6.9,0,14.225-3.393,14.225-15.035C187.46,247.167,180.348,241.578,173.235,241.578Z"/><path class="b" d="M173.235,239.578a16.391,16.391,0,0,0-15.709,12.487c-1.658,6.945.449,15.04,6.719,18.958a18.222,18.222,0,0,0,15.775,1.314c6.96-2.731,9.879-9.867,9.4-17.021a16.541,16.541,0,0,0-16.188-15.738c-2.575-.028-2.577,3.972,0,4a12.359,12.359,0,0,1,11.893,9.723c1.2,5.289-.212,12.027-5.288,14.751a14.317,14.317,0,0,1-11.888.413c-5-2.129-7.1-7.271-6.932-12.573a12.489,12.489,0,0,1,12.215-12.314C175.807,243.55,175.814,239.55,173.235,239.578Z"/><path class="e" d="M374.71,135.182c-13.966,0-27.932-.119-41.9-.169q-5.019-.018-10.039-.023a2.029,2.029,0,0,0-2,2c0,12.487-.183,24.976-.318,37.463q-.26,23.9-.5,47.789c-.057,6.4-.115,12.8-.116,19.2,0,2.574,4,2.578,4,0,0-13.163.178-26.327.318-39.49q.252-23.61.5-47.221c.055-5.914.115-11.829.116-17.744l-2,2c14.538,0,29.076.11,43.614.168,2.774.011,5.549.024,8.323.024,2.574,0,2.578-4,0-4Z"/><path class="e" d="M373.459,147.927c-11.419,0-22.837-.108-34.255-.169-1.829-.009-3.658-.023-5.488-.023a2.028,2.028,0,0,0-2,2q0,15.46,0,30.92,0,2.819,0,5.636a2.029,2.029,0,0,0,2,2c10.361,0,20.722.045,31.083.063q4.332.007,8.665.009c2.573,0,2.578-4,0-4-11.065,0-22.129-.041-33.193-.063q-3.277-.006-6.555-.009l2,2q0-15.732,0-31.464v-5.092l-2,2c10.7,0,21.394.12,32.091.168q3.825.018,7.652.024c2.573,0,2.578-4,0-4Z"/><path class="e" d="M17.29,227.631c9.287,0,18.575-.05,27.862-.085q17.745-.065,35.491-.134c3.3-.012,6.6-.031,9.906-.031l-2-2q0,8.357.007,16.712c0,2.574,4,2.579,4,0q0-8.355-.007-16.712a2.028,2.028,0,0,0-2-2c-7.982,0-15.964.053-23.946.084q-18.288.071-36.576.134-6.367.021-12.737.032c-2.574,0-2.578,4,0,4Z"/><path class="e" d="M23.349,205.146q0,8.393,0,16.785,0,1.513,0,3.028c0,2.574,4,2.578,4,0q0-8.54,0-17.079v-2.734c0-2.574-4-2.578-4,0Z"/><path class="e" d="M17.29,122.391c14.854,0,29.708-.139,44.561-.219,2.385-.013,4.769-.03,7.153-.031l-2-2q0,14.1,0,28.207,0,21.567,0,43.136,0,5.745,0,11.49l2-2c-13.471,0-26.941.059-40.412.082q-5.654.009-11.309.012c-2.574,0-2.578,4,0,4,14.387,0,28.775-.053,43.162-.082q4.279-.009,8.559-.012a2.029,2.029,0,0,0,2-2q0-14.59,0-29.181,0-21.43,0-42.861,0-5.4,0-10.791a2.029,2.029,0,0,0-2-2c-13.914,0-27.829.157-41.743.22q-4.986.022-9.971.03c-2.574,0-2.578,4,0,4Z"/><path class="e" d="M373.459,158.631c-2.849,0-5.7-.095-8.546-.1a2,2,0,0,0,0,4c2.849,0,5.7.093,8.546.1a2,2,0,0,0,0-4Z"/><path class="e" d="M373.459,195.985c-11.419,0-22.837-.107-34.255-.169-1.829-.009-3.658-.023-5.488-.023a2.029,2.029,0,0,0-2,2q0,15.46,0,30.921,0,2.817,0,5.635a2.029,2.029,0,0,0,2,2c10.361,0,20.722.045,31.083.063q4.332.007,8.665.009c2.573,0,2.578-4,0-4q-16.6,0-33.193-.063-3.277-.006-6.555-.009l2,2q0-15.732,0-31.464v-5.092l-2,2c10.7,0,21.394.12,32.091.168q3.825.018,7.652.024c2.573,0,2.578-4,0-4Z"/><path class="e" d="M373.459,206.689c-2.849,0-5.7-.095-8.546-.1a2,2,0,0,0,0,4c2.849,0,5.7.093,8.546.1a2,2,0,0,0,0-4Z"/><path class="e" d="M40.341,136.61l13.9,13.822c1.828,1.818,4.657-1.009,2.829-2.828l-13.9-13.822c-1.827-1.817-4.657,1.01-2.828,2.828Z"/><path class="e" d="M50.835,133.11l5.61,5.58a2,2,0,1,0,2.828-2.829l-5.61-5.579a2,2,0,0,0-2.828,2.828Z"/><path class="f" d="M167.456,165.47c-6.334,1.658-11.015,3.207-11.015,3.207-12.311,2.612-20.659-5.839-20.59-13.546a79.278,79.278,0,0,1,2.438-17.068c1.9-6.773,3.251-18.693,3.248-35.219-.809-24.383,5.6-42.065,15.717-51.746,6.095-5.835,19.83-13.785,35.263-13.785a56.027,56.027,0,0,1,22.4,4.29l2.007.814,4.07,2.21c3.631,1.971,4.6,3.473,7.937,6.692,7.716,7.444,13.078,20.837,13.933,32.831.246,3.46.812,12.463.267,18.694.274,20.59,4.07,32.114,6.029,37.786a37.711,37.711,0,0,1,2.38,12.9c.069,7.706-9.509,17.686-20.52,13.736,0,0-25.841-5.423-38.92-5.742C184.976,161.349,175.033,163.487,167.456,165.47Z"/><path class="a" d="M154.048,99.95a5.82,5.82,0,0,0-4.657-1.362,5.494,5.494,0,0,0-3.952,2.627,7.761,7.761,0,0,0-.813,3.125A23.291,23.291,0,0,0,147,116.683a14.8,14.8,0,0,0,3.827,5.022,6.167,6.167,0,0,0,5.444,1.621l.435-.11a39.9,39.9,0,0,0,7.717,15.351A37.723,37.723,0,0,0,177,148.741a50.538,50.538,0,0,1-.768,6.443c-.47,2.683-.323,5.081-4.053,6.428-.246.089-12.044,5.607-12.762,5.852l-.572.195a80.383,80.383,0,0,0,33.721,8.162c11.678.046,27.011-4.011,35.1-8.6l-.8-.328c-.378-.155-10.956-5.188-11.2-5.277-3.73-1.347-3.583-3.745-4.053-6.428a54.311,54.311,0,0,1-.792-7.166c9.391-4.6,16.876-17.467,18.207-21.081.243-.739.784-2.247,1.2-3.98,1.666-.244,3.885-.243,5.149-1.252a14.8,14.8,0,0,0,3.827-5.022,23.282,23.282,0,0,0,2.374-12.343,7.761,7.761,0,0,0-.813-3.125,5.494,5.494,0,0,0-3.952-2.627,5.82,5.82,0,0,0-4.657,1.362c-6.528-1.992-14.4-12.433-16.921-17.154-1.761-3.3-3.676-10.461-5.193-15.513-7.218,9.4-16.389,16.059-27.781,19.313-2.708.8-.155-7.787.325-11.846-7.2,7.072-15.07,14.537-22.373,20.512Z"/><path class="b" d="M233.572,101.364a3.693,3.693,0,0,1,5.536.993,9.207,9.207,0,0,1,.554,3.948,20.633,20.633,0,0,1-.479,4.459,19.424,19.424,0,0,1-3.335,7.611,5.305,5.305,0,0,1-2.626,2.144,31.644,31.644,0,0,1-3.647.524,2.014,2.014,0,0,0-1.4,2.46,2.055,2.055,0,0,0,2.461,1.4,16.9,16.9,0,0,0,4.926-.99,11.014,11.014,0,0,0,3.969-3.838,24.332,24.332,0,0,0,3.951-10.933c.435-3.513.483-8.1-2.385-10.65a7.878,7.878,0,0,0-10.357.047c-1.977,1.653.866,4.47,2.829,2.828Z"/><path class="b" d="M228.756,119.275a20.046,20.046,0,0,1-.969,5.036c-.183.606-.379,1.21-.587,1.808-.052.15-.107.3-.158.45-.142.419.121-.256-.029.076a41.813,41.813,0,0,1-2.576,4.763,47.529,47.529,0,0,1-10.3,12.121,19.091,19.091,0,0,1-7.571,3.9c-2.506.584-1.445,4.441,1.063,3.857,5.837-1.359,10.694-5.59,14.517-10.018a52.719,52.719,0,0,0,8.195-12.327,26.222,26.222,0,0,0,2.413-9.666c.1-2.574-3.9-2.57-4,0Z"/><path class="b" d="M155.462,98.536a7.878,7.878,0,0,0-10.357-.047c-3.008,2.683-2.815,7.529-2.314,11.182.907,6.617,5.634,17.315,14.012,15.583,2.519-.52,1.453-4.377-1.063-3.857-2.289.473-4.407-1.646-5.615-3.344a21.045,21.045,0,0,1-3.582-11.967,8.851,8.851,0,0,1,.554-3.729,3.694,3.694,0,0,1,5.536-.993c1.962,1.641,4.807-1.174,2.829-2.828Z"/><path class="b" d="M153.088,114.53a55.6,55.6,0,0,0,4.569,17.083,41.49,41.49,0,0,0,14.841,16.91,27.86,27.86,0,0,0,10.885,4.25,2.066,2.066,0,0,0,2.46-1.4,2.015,2.015,0,0,0-1.4-2.46c-6.5-.977-12.018-4.695-16.485-9.382a38.8,38.8,0,0,1-9.436-17.265,61.68,61.68,0,0,1-1.437-7.739,2.063,2.063,0,0,0-2-2,2.012,2.012,0,0,0-2,2Z"/><path class="b" d="M208.252,68.275c1.189,4,2.266,8.056,3.725,11.973a33.577,33.577,0,0,0,4.185,7.759,57.743,57.743,0,0,0,6.929,8.209,22.736,22.736,0,0,0,8.535,5.663c2.457.787,3.509-3.074,1.063-3.858-2.823-.905-5.212-3.068-7.268-5.123a53.434,53.434,0,0,1-6.155-7.411,29.719,29.719,0,0,1-3.676-6.973c-1.328-3.712-2.359-7.525-3.481-11.3-.731-2.462-4.593-1.414-3.857,1.063Z"/><path class="b" d="M208.61,65.906A54.858,54.858,0,0,1,193.829,79.4a48.512,48.512,0,0,1-9.084,4.309q-1.116.391-2.251.734a2.661,2.661,0,0,0-.572.169c-.36.224-.015-.031.213.061a2.761,2.761,0,0,1,.748.388c.2.17.178.124.106.116.253.025-.034.334.035-.1-.054.336.008-.072.012-.227.016-.562.039-1.118.1-1.677.336-2.831,1.092-5.6,1.446-8.428.226-1.806-2.287-2.52-3.414-1.414-7.218,7.086-14.548,14.093-22.373,20.511-1.991,1.634.853,4.449,2.829,2.829C169.453,90.257,176.783,83.25,184,76.164l-3.414-1.414c-.317,2.534-1.128,5.644-1.446,8.428-.245,2.153-.069,5.56,2.912,5.461,1.768-.059,3.776-1.05,5.405-1.684a55.818,55.818,0,0,0,5.4-2.422,53.856,53.856,0,0,0,9.445-6.284,59.253,59.253,0,0,0,9.14-9.515,2.066,2.066,0,0,0,0-2.828,2.014,2.014,0,0,0-2.829,0Z"/><path class="b" d="M215.449,39.675a59.723,59.723,0,0,0-24.907-4.319,56.746,56.746,0,0,0-24.96,7.326,44.347,44.347,0,0,0-14.369,12.333A56.335,56.335,0,0,0,142.578,73.6a98.8,98.8,0,0,0-3.041,29.242c.081,2.568,4.081,2.579,4,0-.465-14.821,1.354-30.834,9.578-43.564a38.259,38.259,0,0,1,12.1-11.74,53.532,53.532,0,0,1,22.295-7.954,55.913,55.913,0,0,1,26.871,3.946,2.013,2.013,0,0,0,2.46-1.4,2.048,2.048,0,0,0-1.4-2.46Z"/><path class="b" d="M245.132,102.844a102.02,102.02,0,0,0,.059-13.12,90.594,90.594,0,0,0-1.049-11.4,56.017,56.017,0,0,0-10.931-25.262,68.233,68.233,0,0,0-4.987-5.274,27.83,27.83,0,0,0-5.406-4.434c-2.212-1.329-4.225,2.128-2.019,3.454a22.258,22.258,0,0,1,4.338,3.547c1.45,1.461,2.969,2.865,4.318,4.421a43.736,43.736,0,0,1,6.565,10.6,57.653,57.653,0,0,1,4.047,12.83,75.023,75.023,0,0,1,1.084,10.662,105.285,105.285,0,0,1-.019,13.975c-.214,2.565,3.787,2.551,4,0Z"/><path class="b" d="M139.539,102.843c-.009,10.823-.21,22.02-2.656,32.618a116.415,116.415,0,0,0-2.774,15.2,25.5,25.5,0,0,0,.008,7.173,14.948,14.948,0,0,0,2.839,6.173,18.877,18.877,0,0,0,15.481,7.145c2.572-.036,2.58-4.036,0-4a14.937,14.937,0,0,1-12.18-5.367,11.371,11.371,0,0,1-2.331-5.286,27.332,27.332,0,0,1,.26-6.6,120.073,120.073,0,0,1,2.634-13.727,101.49,101.49,0,0,0,1.872-12.776c.636-6.83.841-13.7.847-20.553,0-2.574-4-2.578-4,0Z"/><path class="b" d="M241.132,102.844a126,126,0,0,0,4.219,32.385c2.282,8.081,7.438,17.943,1.366,25.481a13.551,13.551,0,0,1-15.165,4.627c-2.438-.842-3.486,3.021-1.063,3.857a17.148,17.148,0,0,0,16.61-3.212,16.869,16.869,0,0,0,6.424-13.382,40.142,40.142,0,0,0-1.847-10.726c-.517-1.653-1.114-3.28-1.637-4.932a96.985,96.985,0,0,1-2.94-11.955,135.235,135.235,0,0,1-1.967-22.143c-.038-2.572-4.038-2.579-4,0Z"/><path class="b" d="M174.965,149.363a50.528,50.528,0,0,1-.63,5.114,30.088,30.088,0,0,1-.554,3.1c-.036.125-.26.706-.117.4a4.77,4.77,0,0,1-.319.572c-.173.267.175-.191-.04.057-.066.076-.135.15-.207.221a1.825,1.825,0,0,1-.569.43,18.668,18.668,0,0,1-1.706.787c-2.956,1.344-5.891,2.733-8.841,4.09q-1.143.525-2.289,1.045c-.272.123-.546.244-.818.366-.506.227.462-.168.011-.007a2.053,2.053,0,0,0-1.4,2.461,2.019,2.019,0,0,0,2.461,1.4c1.175-.421,2.312-1.01,3.445-1.53q2.721-1.248,5.435-2.511,2.005-.93,4.012-1.857a1.706,1.706,0,0,0,.322-.146c-.012.01-.754.3-.312.139.217-.081.43-.173.643-.264a8.167,8.167,0,0,0,1.157-.579,6.74,6.74,0,0,0,2.743-3.3,16.336,16.336,0,0,0,.732-3.423c.359-2.179.688-4.355.838-6.559a2,2,0,0,0-4,0Z"/><path class="b" d="M208.842,148.374a68.976,68.976,0,0,0,1.191,9.484,7.284,7.284,0,0,0,4.82,5.574c.755.3-.512-.255.023,0,.2.095.4.184.594.277q.936.438,1.87.881,2.53,1.2,5.06,2.394c1.151.545,2.293,1.13,3.464,1.629a2.069,2.069,0,0,0,2.737-.717,2.015,2.015,0,0,0-.718-2.737c-2.485-1.059-4.9-2.31-7.343-3.465-1.186-.56-2.366-1.133-3.559-1.676a13.888,13.888,0,0,1-1.795-.85,2.349,2.349,0,0,1-1.095-1.522,29.619,29.619,0,0,1-.635-3.532,50.973,50.973,0,0,1-.614-5.743,2.043,2.043,0,0,0-2-2,2.019,2.019,0,0,0-2,2Z"/><path class="b" d="M253.71,178.25c-4.312-3.823-9.566-6.693-14.719-9.205a65.929,65.929,0,0,0-7.441-3.173,16.959,16.959,0,0,0-2.579-.713c-1.791-.312-3.212.8-4.783,1.545a73.852,73.852,0,0,1-44.437,5.865,76.147,76.147,0,0,1-10.966-2.956c-1.989-.684-3.964-1.405-5.891-2.25q-1.4-.612-2.766-1.29a5.356,5.356,0,0,0-2.417-.85,12.221,12.221,0,0,0-4.3,1.347c-1.705.715-3.391,1.475-5.076,2.237-3.2,1.448-6.492,2.741-9.547,4.477a38.792,38.792,0,0,0-12.94,11.9,50.927,50.927,0,0,0-6.736,15.436c-3.191,11.827-3.721,24.187-5.631,36.244q-.372,2.34-.81,4.67c-.474,2.516,3.38,3.594,3.857,1.063,1.881-9.968,2.621-20.1,4.21-30.106,1.421-8.953,3.551-18.117,8.821-25.661a33.757,33.757,0,0,1,9.768-9.209,55.7,55.7,0,0,1,7.133-3.606c2.686-1.187,5.339-2.449,8.042-3.6.663-.282,1.33-.555,2.008-.8a6.483,6.483,0,0,0,1.356-.411l-.155.014q.414,0-.231-.011a4.186,4.186,0,0,0,.839.419q1.371.672,2.772,1.28a94.678,94.678,0,0,0,9.244,3.438,73.838,73.838,0,0,0,18.274,3.256,78.62,78.62,0,0,0,40.408-8.851l-1.01.273c-.562-.065.371.082.562.128.39.093.776.205,1.159.324.865.269,1.715.585,2.558.919,2.213.877,4.367,1.914,6.484,3a57.986,57.986,0,0,1,12.111,7.679c1.921,1.7,4.76-1.117,2.829-2.828Z"/><path class="b" d="M143.851,242.093c-.695-7.166-1.409-14.33-2.1-21.5-.456-4.764-1-9.54-1.241-14.32-.127-2.562-4.128-2.578-4,0,.239,4.78.785,9.556,1.241,14.32.687,7.167,1.4,14.331,2.1,21.5a2.056,2.056,0,0,0,2,2,2.014,2.014,0,0,0,2-2Z"/><path class="b" d="M250.5,205.975c-1.1,4.318-2.115,9.037-.557,13.378a16.141,16.141,0,0,0,1.313,2.813c.189.318.6.765.71,1.017-.006-.013-.006.558-.039.881-.173,1.689-.928,3.306-1.014,5-.209,4.108,3.176,7.971,6.6,9.821a18.982,18.982,0,0,0,7.11,1.966,18.221,18.221,0,0,0,8.073-.733,6.539,6.539,0,0,0,4.23-4.255c.411-1.612.076-3.27.265-4.9.485-4.2,3.75-6.646,6.414-9.566,1.792-1.963,3.441-4.067,5.1-6.146a12.552,12.552,0,0,0,2.459-5.253,30.509,30.509,0,0,0,.058-12.09c-.875-5.044-2.342-10.452-6.014-14.222a12.009,12.009,0,0,0-15.012-2.223c-2.232,1.281-.219,4.739,2.019,3.454,3.709-2.13,7.552-1.233,10.409,1.855,2.694,2.911,3.761,7.11,4.5,10.9a27.814,27.814,0,0,1,.409,10.1,10.677,10.677,0,0,1-1.521,4.484c-1.35,1.879-2.925,3.661-4.436,5.413-2.356,2.732-5.47,5.072-7.057,8.386a14.341,14.341,0,0,0-1.38,5.661c-.027.694.021,1.388.015,2.082a3.194,3.194,0,0,1-.163,1.29c-.722,1.538-3.227,1.71-4.721,1.817a18.954,18.954,0,0,1-7.053-.787c-2.742-.859-6.123-3.456-6.3-6.571a6.977,6.977,0,0,1,.4-1.964,27.435,27.435,0,0,0,.535-2.815,6.742,6.742,0,0,0-.019-2.644,15.586,15.586,0,0,0-1.545-2.751c-2-3.885-.941-8.323.079-12.33.636-2.5-3.221-3.56-3.857-1.063Z"/><path class="b" d="M269.466,194.434a29.345,29.345,0,0,1,4.816.119c.59.062-.409-.067.178.022.207.031.413.063.619.1q.573.1,1.142.227a22.227,22.227,0,0,1,2.413.695,2.012,2.012,0,0,0,2.46-1.4,2.049,2.049,0,0,0-1.4-2.46,26.5,26.5,0,0,0-10.231-1.305,2,2,0,0,0,0,4Z"/><path class="b" d="M267.068,202c1.485,0,2.971.039,4.449.183q.3.029.593.063a1.056,1.056,0,0,0,.3.037c-.1.028-.365-.054-.086-.011.419.063.836.131,1.251.215a14.606,14.606,0,0,1,2.392.683,2.01,2.01,0,0,0,2.461-1.4,2.058,2.058,0,0,0-1.4-2.461,20.569,20.569,0,0,0-5.363-1.114,44.1,44.1,0,0,0-4.6-.2,2,2,0,0,0,0,4Z"/><path class="b" d="M273.926,205.549c-1.482-.11-2.966-.172-4.452-.167a7.207,7.207,0,0,0-4.257,1.047,4.686,4.686,0,0,0-2.046,4.523,5.024,5.024,0,0,0,.858,2.292,8.058,8.058,0,0,0,2.011,1.837c1.3.928,2.611,1.841,3.973,2.681a2.019,2.019,0,0,0,2.736-.718,2.04,2.04,0,0,0-.717-2.736c-1.077-.664-2.125-1.37-3.157-2.1l-.654-.465a3.344,3.344,0,0,0-.707-.5c.016.006.287.258.145.109-.044-.048-.1-.088-.145-.134s-.087-.1-.136-.142c-.152-.129.1.13.105.152a3.651,3.651,0,0,0-.213-.327c-.032-.056-.057-.118-.091-.172-.13-.2.109.354.049.12-.032-.125-.08-.246-.108-.373a1.184,1.184,0,0,0-.038-.19c.008.017.021.414.038.209.009-.125.006-.267,0-.392,0-.212-.022.193-.029.205a1.13,1.13,0,0,0,.055-.231,1.379,1.379,0,0,0,.074-.219c0,.038-.2.348-.082.221.046-.05.272-.394.056-.125s.042-.034.1-.091c.04-.039.083-.075.123-.115.2-.2-.077.1-.138.1a2.584,2.584,0,0,0,.605-.339s-.406.146-.2.092c.057-.015.113-.04.169-.058.134-.042.27-.078.406-.109.081-.017.494-.083.152-.037s.073,0,.156,0c.3-.015.606-.011.908-.012,1.486,0,2.97.057,4.452.167a2.01,2.01,0,0,0,2-2,2.049,2.049,0,0,0-2-2Z"/><path class="b" d="M186.757,131.414a15.654,15.654,0,0,0,7.541,1.747,12.284,12.284,0,0,0,7.619-2.251,2,2,0,0,0,0-2.829,2.062,2.062,0,0,0-2.828,0c.609-.474.146-.119-.011-.018s-.306.186-.465.269c-.082.043-.166.082-.249.124-.286.147-.04-.084.09-.03-.086-.036-.539.2-.641.233a11.365,11.365,0,0,1-1.794.409c.3-.045-.028,0-.158.013-.176.018-.353.033-.529.044-.425.027-.85.038-1.276.036-.381,0-.761-.016-1.142-.041-.174-.012-.348-.026-.523-.044-.03,0-.659-.1-.24-.026a14.575,14.575,0,0,1-1.676-.372c-.235-.07-.463-.154-.695-.233-.508-.174.306.156-.152-.06-.288-.135-.571-.276-.852-.425a2,2,0,1,0-2.019,3.454Z"/><path class="b" d="M193.26,113.677a35.266,35.266,0,0,1,.83,3.8l-.071-.531a2.3,2.3,0,0,1,.014.524l.071-.532a1.269,1.269,0,0,1-.057.236l.2-.478a.973.973,0,0,1-.083.152l.313-.405a.753.753,0,0,1-.124.122l.4-.312a2.605,2.605,0,0,1-.3.159l.477-.2a2.17,2.17,0,0,1-.507.148l.532-.071a2,2,0,0,1-.476,0l.532.071c-.18-.025-.356-.068-.535-.092a2.246,2.246,0,0,0-1.542.2,2,2,0,0,0-.717,2.737,1.916,1.916,0,0,0,1.195.919c.413.055.814.16,1.235.179a3.95,3.95,0,0,0,1.824-.435,2.644,2.644,0,0,0,1.463-1.743,4.358,4.358,0,0,0-.018-1.871c-.207-1.223-.489-2.436-.8-3.636a2,2,0,1,0-3.857,1.063Z"/><path class="b" d="M173.227,102.907c-.634,2.061-.221,6.8,3.684,7.206,5.162-.031,5.436-5.763,3.7-8.459C179.187,99.447,175,98.529,173.227,102.907Z"/><path class="b" d="M214.558,102.907c.635,2.061.221,6.8-3.684,7.206-5.161-.031-5.436-5.764-3.7-8.459C208.6,99.447,212.781,98.529,214.558,102.907Z"/><path class="b" d="M255.666,195.783c-.367-3.247-.151-7.761,3.012-9.572a3.9,3.9,0,0,1,3.7-.093c1.14.661,1.331,1.665,1.444,3.055a24.718,24.718,0,0,1-.665,8.885,15.339,15.339,0,0,1-.49,1.494c.088-.221-.157.333-.22.452s-.13.24-.2.357c0,0-.342.509-.154.264a2.1,2.1,0,0,1-1.021.856c.112-.053-.42.131-.586.159a6.1,6.1,0,0,1-.971.005,3.45,3.45,0,0,1-2.377-1.524,10.29,10.29,0,0,1-1.468-4.338,2.066,2.066,0,0,0-2-2,2.011,2.011,0,0,0-2,2c.5,3.859,1.914,8.139,5.971,9.515a7.015,7.015,0,0,0,5.817-.572,8.13,8.13,0,0,0,3.066-4.11,25.692,25.692,0,0,0,1.31-11.288c-.19-2.466-.658-4.673-2.754-6.218a7.783,7.783,0,0,0-6.231-1.228c-6.108,1.338-7.787,8.525-7.179,13.9a2.06,2.06,0,0,0,2,2A2.013,2.013,0,0,0,255.666,195.783Z"/></svg>