<?xml version="1.0" encoding="iso-8859-1"?>
<!-- Uploaded to: SVG Repo, www.svgrepo.com, Generator: SVG Repo Mixer Tools -->
<svg height="800px" width="800px" version="1.1" id="Layer_1" xmlns="http://www.w3.org/2000/svg" xmlns:xlink="http://www.w3.org/1999/xlink" 
	 viewBox="0 0 505 505" xml:space="preserve">
<circle style="fill:#54C0EB;" cx="252.5" cy="252.5" r="252.5"/>
<polygon style="fill:#FFFFFF;" points="325.6,86.1 325.6,139.7 379.1,139.7 379.1,418.9 125.9,418.9 125.9,86.1 "/>
<g>
	<polygon style="fill:#E6E9EE;" points="325.6,86.1 379.1,139.7 325.6,139.7 	"/>
	<path style="fill:#E6E9EE;" d="M321.7,302.6l18,7.5c3.1-8,5.2-16.7,5.9-25.7h-19.5C325.4,290.7,323.9,296.9,321.7,302.6z"/>
</g>
<path style="fill:#CED5E0;" d="M306.9,326.5l13.7,13.7c5.9-6.3,11-13.4,15-21.1l-18-7.5C314.6,317.1,311,322.1,306.9,326.5z"/>
<path style="fill:#ACB3BA;" d="M284.4,343l7.5,17.9c7.8-3.6,15.1-8.2,21.5-13.8l-13.8-13.8C295,337.2,289.9,340.5,284.4,343z"/>
<path style="fill:#4CDBC4;" d="M252.7,350.2c-40.8,0-73.9-33.1-73.9-73.9s33.1-73.8,73.9-73.8c5.6,0,11,0.7,16.2,1.8l-8.9,13.1l0,0
	l53.2,3.1l-22.6-48.1l-10.2,15c-8.8-2.7-18.1-4.3-27.7-4.3c-51.5,0-93.3,41.7-93.3,93.3c0,51.5,41.8,93.3,93.3,93.3
	c10.4,0,20.5-1.7,29.9-4.9l-7.5-18C268.1,348.9,260.6,350.2,252.7,350.2z"/>
<path style="fill:#FF7058;" d="M249.3,276.6v-54.1c-29.6,0.2-53.5,24.2-53.5,53.8c0,29.7,24.1,53.8,53.8,53.8
	c29.6,0,53.6-23.9,53.8-53.5L249.3,276.6L249.3,276.6z"/>
<path style="fill:#324A5E;" d="M274.4,239.4c0,2-0.7,3.7-2.2,5.1c-1.4,1.4-3.2,2.1-5.4,2.1c-2.2,0-4-0.7-5.4-2.1
	c-1.4-1.4-2.2-3.1-2.2-5.1s0.7-3.7,2.2-5.1c1.4-1.4,3.2-2.1,5.4-2.1c2.2,0,4,0.7,5.4,2.1C273.7,235.7,274.4,237.4,274.4,239.4z
	 M294.1,231.3l-25.7,35.8h-8.8l25.7-35.8H294.1z M265.3,241.2c0.4,0.5,0.9,0.7,1.5,0.7s1.1-0.2,1.5-0.7s0.6-1.1,0.6-1.8
	s-0.2-1.4-0.6-1.9s-0.9-0.7-1.5-0.7s-1.1,0.2-1.5,0.7s-0.6,1.1-0.6,1.9S264.9,240.7,265.3,241.2z M294.6,260.3c0,2-0.7,3.7-2.2,5.1
	c-1.4,1.4-3.2,2.1-5.4,2.1c-2.2,0-4-0.7-5.4-2.1s-2.2-3.1-2.2-5.1s0.7-3.7,2.2-5.1c1.4-1.4,3.2-2.1,5.4-2.1c2.2,0,4,0.7,5.4,2.1
	C293.9,256.6,294.6,258.3,294.6,260.3z M285.5,262.2c0.4,0.5,0.9,0.7,1.5,0.7s1.1-0.2,1.5-0.7s0.6-1.1,0.6-1.8
	c0-0.8-0.2-1.4-0.6-1.9s-0.9-0.7-1.5-0.7s-1.1,0.3-1.5,0.7c-0.4,0.5-0.6,1.1-0.6,1.9C284.9,261.1,285.1,261.7,285.5,262.2z"/>
</svg>