<?xml version="1.0" encoding="UTF-8"?>
<svg width="300px" height="300px" viewBox="0 0 300 300" version="1.1" xmlns="http://www.w3.org/2000/svg" xmlns:xlink="http://www.w3.org/1999/xlink">
  <!-- Generator: Sketch 46.2 (44496) - http://www.bohemiancoding.com/sketch -->
  <defs>
    <polygon id="path-1" points="24.1527055 0 0 0 1.61735923e-15 29.6217664 24.1527055 29.6217664 24.1527055 6.5547033e-15">
    </polygon>
  </defs>
  <g id="Page-1" stroke="none" stroke-width="1" fill="none" fill-rule="evenodd">
    <g id="illo_StoryPoint_1">
      <g transform="translate(10.000000, 88.000000)">
        <g id="Linux" transform="translate(197.694367, 25.097941)">
          <path d="M54.2555147,59.2435328 L52.2986205,59.2435328 L32.938812,59.2435328 L31.9230196,59.2435328 C34.6118819,68.9348719 30.9968559,70.3259001 15.207259,70.3259001 L15.207259,75.40086 L35.2840975,75.40086 L49.9383969,75.40086 L68.8799379,75.40086 L68.8799379,70.3259001 C53.1202173,70.3259001 51.5666524,68.9501579 54.2555147,59.2435328" id="baseBack" fill="#7A7A7A" fill-rule="nonzero">
          </path>
          <path d="M77.3275834,0 L4.47646611,0 C2.00617545,0 0,2.21635757 0,4.68729675 L0,55.4987915 C0,57.9547553 1.99120399,60.1411621 4.47646611,60.1411621 L77.3275834,60.1411621 C79.7978741,60.1411621 82.2981077,57.9547553 82.2981077,55.4987915 L82.2981077,4.68729675 C82.2981077,2.20138218 79.7978741,0 77.3275834,0 L77.3275834,0 Z M75.9651807,6.33458954 L75.9651807,53.821548 L6.33292697,53.821548 L6.33292697,6.33458954 L76.1598097,6.22976181 L75.9651807,6.33458954 Z" id="monitor" fill="#A0A1A2" fill-rule="nonzero">
          </path>
          <rect id="base" fill="#A0A1A2" fill-rule="nonzero" x="15.207259" y="70.9127135" width="53.6726789" height="5.38577571">
          </rect>
          <polygon id="screen_Yellow" fill="#F4B700" fill-rule="nonzero" points="76.7366483 5.48881363 76.7366483 53.8577571 7.15635719 53.8577571 7.15635719 5.48881363 76.9308398 5.38577571">
          </polygon>
          <g id="Linux_Mascot" transform="translate(28.625429, 14.362069)">
            <mask id="mask-2" fill="white">
              <use xlink:href="#path-1">
              </use>
            </mask>
            <g id="Clip-35">
            </g>
            <path d="M23.7637766,25.0575852 C23.7473878,25.3490919 23.5379745,25.5647239 23.1532915,25.7999587 C22.3841531,26.2697365 21.021829,26.6777076 20.151626,27.7457199 C19.3959174,28.656909 18.4735887,29.1594352 17.6618848,29.2242401 C16.8504086,29.2892756 16.1511505,28.9472626 15.7382422,28.1080277 L15.7382422,28.104799 L15.7352831,28.1018009 C15.4792071,27.608269 15.588011,26.8296877 15.8037976,26.0079801 C16.0195843,25.1862725 16.3280136,24.3463457 16.3696686,23.6604747 L16.3696686,23.6577072 C16.4133722,22.7788052 16.4620836,22.0108326 16.60799,21.4188249 C16.7534411,20.8268172 16.9815194,20.425073 17.3880543,20.1999855 C17.406947,20.1893769 17.4258397,20.1792295 17.4445048,20.169774 C17.4907123,20.9305973 17.8656075,21.7066417 18.5227553,21.8743042 C19.241589,22.0664126 20.2765911,21.4398116 20.7145379,20.9301361 C20.8014899,20.9264461 20.8875314,20.9229868 20.9706138,20.9209112 C21.3543864,20.9114557 21.674652,20.9372854 22.003795,21.2285615 L22.0067541,21.2285615 C22.2596433,21.4458078 22.3791454,21.8553931 22.4831692,22.314793 C22.5874206,22.774654 22.6709582,23.2739515 22.9834847,23.6304938 L22.9834847,23.6334919 C23.5846373,24.3092155 23.7801655,24.7660785 23.7637766,25.0575852 L23.7637766,25.0575852 Z M20.0353106,20.4412166 C19.8470663,20.8051387 19.0394597,21.3844622 18.4867908,21.2317902 C17.9229685,21.0841918 17.6477722,20.2608699 17.7392767,19.6386506 C17.7884432,19.2161504 18.0274475,19.0339587 18.3736622,19.0321137 C18.6031062,19.0309606 18.8794406,19.1084497 19.1837727,19.2465925 C20.0025329,19.6294257 20.2590641,19.9592158 20.0353106,20.4412166 L20.0353106,20.4412166 Z M9.05591156,25.7153203 C8.9093223,25.4805467 8.74338508,25.2473874 8.57039154,25.0181488 C8.46022197,24.8717035 8.34663806,24.7271033 8.23373701,24.5836562 C8.45566951,24.5836562 8.64436904,24.5451422 8.79664888,24.4752636 C8.9862589,24.388319 9.11805266,24.2504068 9.18383573,24.0709826 C9.31540187,23.7119035 9.18224237,23.2068404 8.76113968,22.6286701 C8.33935412,22.0504997 7.62712151,21.3978383 6.57823438,20.7460994 C5.80750264,20.260178 5.37433593,19.6635578 5.17266189,19.0171232 C4.97076022,18.370458 5.0021722,17.6709803 5.15786639,16.9807274 C5.45605262,15.6553405 6.21995566,14.3677756 6.70911765,13.5592135 C6.84091141,13.4609683 6.75737374,13.7393296 6.21472033,14.7600643 C5.72874506,15.6931626 4.818708,17.8490208 6.06289574,19.5300275 C6.09635633,18.3337891 6.38179566,17.1140272 6.85525166,15.9726769 C7.54449434,14.3892235 8.98603128,11.6413576 9.10052568,9.452751 C9.15948006,9.49610801 9.36160935,9.63609581 9.45197571,9.68798585 C9.71647373,9.8459622 9.91518867,10.0758927 10.1726304,10.2855285 C10.4305273,10.4953949 10.7519311,10.6792009 11.2388169,10.7077981 C11.8067364,10.7412384 12.2419518,10.5604304 12.5963609,10.3549458 C12.95077,10.1496919 13.2337055,9.92160634 13.5018455,9.83281672 C14.0681717,9.65339249 14.5202311,9.3374398 14.7765347,8.9668296 C15.2165301,10.7253254 16.2383301,13.2640168 16.896616,14.5033816 C17.2464727,15.1611167 17.9420888,16.5582272 18.2425513,18.2417707 C18.4332994,18.2357745 18.6433955,18.2650636 18.8680595,18.3231804 C19.6542696,16.2581875 18.2013515,14.0336038 17.5371474,13.4143826 C17.2687798,13.1505506 17.2548948,13.0315494 17.3880543,13.0370844 C18.1087089,13.6830577 19.056759,14.9833068 19.4011527,16.449604 C19.557985,17.1179478 19.5934942,17.8195011 19.4248255,18.5132133 C19.5074527,18.5478067 19.5903075,18.584245 19.6749833,18.6248345 C20.9371533,19.247515 21.4033253,19.7897083 21.1791166,20.5286225 C21.1049115,20.5260856 21.0325273,20.5272387 20.9615089,20.5286225 C20.9549079,20.5286225 20.9471687,20.5279306 20.9407952,20.5286225 C21.1233489,19.9428416 20.7181799,19.5115777 19.6392465,19.0171232 C18.5204791,18.5185176 17.6281966,18.5667177 17.4775101,19.5782275 C17.4677223,19.6315013 17.4595279,19.6866201 17.4533821,19.7412776 C17.3698444,19.7705666 17.2876725,19.8090806 17.2034519,19.8558969 C16.6778703,20.147173 16.3919757,20.6739146 16.2326395,21.3224248 C16.0733034,21.9697819 16.026413,22.7532062 15.9822541,23.6332612 C15.9556222,24.0760562 15.7744343,24.6768276 15.5923358,25.3110392 C13.7592872,26.6357343 11.2158269,27.2086003 9.05591156,25.7153203 L9.05591156,25.7153203 Z M9.15105801,27.211829 L9.15105801,27.2148271 L9.15105801,27.2178252 C9.08186059,28.1412373 8.56743244,28.6433023 7.77803561,28.8259552 C6.98932165,29.0086082 5.91903795,28.8250327 4.85080286,28.2588547 C3.66898385,27.6246431 2.26272848,27.6862193 1.36088586,27.495264 C0.909736919,27.4000169 0.61450979,27.2581841 0.479301683,26.9915847 C0.344093576,26.7247545 0.344093576,26.2612035 0.631126274,25.4678624 L0.631126274,25.4618663 L0.631126274,25.4588682 C0.773163074,25.01492 0.670505066,24.5296905 0.601307651,24.0739806 C0.532337859,23.6182708 0.495462921,23.2043036 0.649108497,22.9153337 L0.652067597,22.9123356 C0.848733935,22.5283493 1.13690475,22.3908984 1.49495585,22.2605967 C1.85277932,22.1305257 2.27638587,22.0276681 2.61144703,21.6875 L2.61463376,21.6875 L2.61463376,21.6842713 C2.92442876,21.3533282 3.15819766,20.9382079 3.43066249,20.6432418 C3.66056179,20.3946308 3.89068872,20.2295052 4.23758629,20.227199 L4.23758629,20.2269684 L4.24942269,20.2269684 C4.30928756,20.227199 4.37529825,20.2348095 4.4429023,20.2451875 C4.90315616,20.3155274 5.30126892,20.6402437 5.68777291,21.1713671 C6.07427689,21.7024905 6.43779094,22.4277979 6.80745082,23.2322089 L6.80745082,23.235207 C7.10449893,23.8634224 7.7295519,24.5520609 8.26082416,25.2566123 C8.79209642,25.9613944 9.20454943,26.6703276 9.15105801,27.211829 L9.15105801,27.211829 Z M8.95757839,7.90181535 C9.23027084,7.69494706 9.42101897,7.55518988 9.54712216,7.46132656 C9.67254247,7.36815511 9.72466816,7.33148615 9.7645022,7.29251096 C9.96936296,7.09579006 10.2964573,6.73717222 10.7890337,6.56512791 C10.9583852,6.5063192 11.1459466,6.46665214 11.3576361,6.46572965 L11.3608228,6.46872775 C11.7648538,6.46734401 12.2490081,6.60133563 12.837869,6.98486068 C13.1993344,7.222863 13.4822699,7.24361902 14.1303128,7.52497835 C14.4419288,7.65435751 14.6274416,7.82363436 14.7168975,8.00144423 C14.8061257,8.1792541 14.8063533,8.3718238 14.731693,8.57477152 C14.5821446,8.98066694 14.1036809,9.40662652 13.4333309,9.61879913 L13.4333309,9.6215666 C13.1066918,9.72926726 12.8194315,9.96703896 12.4832322,10.1616843 C12.1474882,10.3565602 11.7675853,10.5119997 11.2504256,10.4815575 C10.8104302,10.4557278 10.547298,10.3042089 10.3096595,10.1104861 C10.0717933,9.9169939 9.86556684,9.67576286 9.56191766,9.49518552 L9.56191766,9.49195681 C9.07321091,9.21198121 8.80302232,8.88887923 8.71925703,8.60798114 C8.63549174,8.32708306 8.71515982,8.08608265 8.95757839,7.90181535 L8.95757839,7.90181535 Z M8.8264675,5.25588453 C8.90818418,4.98859317 9.01676039,4.79648471 9.17495843,4.63735525 C9.33315647,4.47845642 9.49203737,4.39704671 9.68437887,4.38689933 C9.69917437,4.38620746 9.71396987,4.38689933 9.728993,4.38689933 C9.9026694,4.38689933 10.056315,4.44686115 10.2172445,4.57693218 C10.3918314,4.71830372 10.5265843,4.89888106 10.6372091,5.15325757 C10.7476063,5.4078647 10.8054225,5.66154934 10.8218114,5.96181971 C10.8297782,6.08797016 10.8286401,6.20904692 10.8188523,6.3241275 C10.7844812,6.33381364 10.7505654,6.34557538 10.71756,6.3571065 C10.5299986,6.42260327 10.364289,6.50816418 10.2202036,6.60456434 C10.2343162,6.50378235 10.2368201,6.40161663 10.2261218,6.28768916 C10.2247561,6.28146236 10.2261218,6.27615804 10.2261218,6.26970061 C10.2110987,6.11818169 10.1776381,5.99087813 10.1248295,5.86242145 C10.068379,5.72866046 10.0053274,5.63618088 9.92224499,5.56376544 C9.84712937,5.49780743 9.77724909,5.46921026 9.69917437,5.47013275 C9.69097994,5.47013275 9.68346838,5.46921026 9.67504633,5.47013275 C9.58741144,5.47774329 9.51206821,5.52063905 9.44287079,5.60573872 C9.373901,5.69106901 9.32974212,5.79784718 9.2969644,5.93783498 C9.2644143,6.07782277 9.25644749,6.21458186 9.27010488,6.37232758 L9.27010488,6.39054675 C9.28535562,6.54321878 9.31745048,6.66936923 9.37139714,6.79759529 C9.42670955,6.92997255 9.48816778,7.02383587 9.57079496,7.0962513 C9.58490759,7.10847429 9.59902022,7.12000541 9.6126776,7.12969155 C9.52640846,7.19680267 9.48680204,7.22770607 9.41623889,7.2805186 C9.3709419,7.31395885 9.31813334,7.35431777 9.25530938,7.40090349 C9.11850791,7.2712937 9.00924883,7.10916615 8.91592337,6.89422608 C8.80529855,6.63984957 8.74566131,6.3859343 8.72813433,6.08566394 L8.72813433,6.08266584 C8.71197309,5.78239548 8.74497844,5.5231759 8.8264675,5.25588453 L8.8264675,5.25588453 Z M11.8700156,6.00425423 C11.8661461,5.65670627 11.9225966,5.35966462 12.054618,5.05662678 C12.1864117,4.75405019 12.3518937,4.53680389 12.5815654,4.3599165 C12.8114647,4.1827985 13.0347629,4.09977444 13.30222,4.09723759 L13.3170155,4.09723759 C13.5792373,4.09723759 13.8018527,4.17564921 14.031752,4.34469543 C14.2652933,4.51650911 14.4353277,4.73237168 14.5707634,5.03264205 C14.7039229,5.32507126 14.7672022,5.61012054 14.773348,5.94982734 C14.773348,5.95882162 14.7740309,5.96827713 14.7765347,5.97704078 C14.7788109,6.32551123 14.7194013,6.6216304 14.5887457,6.92443761 C14.5143129,7.09717379 14.4291819,7.24223528 14.3267515,7.36792449 C14.2919252,7.35108905 14.2541397,7.33517611 14.2165819,7.31972441 C13.956864,7.20695005 13.7572386,7.13361213 13.5913013,7.07526466 C13.6513938,7.00192674 13.7019262,6.91544334 13.7458574,6.80658956 C13.812551,6.64238641 13.8469221,6.4816426 13.8532955,6.29068725 C13.8532955,6.28330733 13.8562546,6.27846426 13.8562546,6.26970061 C13.8598966,6.0863558 13.8346304,5.92930195 13.7815942,5.76878876 C13.7265095,5.60089565 13.6543529,5.48004951 13.5526054,5.37972876 C13.4506303,5.27894678 13.3497933,5.23259167 13.2280149,5.22890171 C13.2220967,5.22797922 13.2157233,5.22890171 13.2100327,5.22890171 C13.0955383,5.22936296 12.9972051,5.26810752 12.8943195,5.35528279 C12.7861985,5.44707051 12.7049371,5.56376544 12.6382435,5.72658486 C12.5717776,5.88940427 12.5403656,6.0533768 12.5339922,6.24548526 C12.5326264,6.2530958 12.5310331,6.25886136 12.5310331,6.26670252 C12.5289845,6.37232758 12.5358131,6.46849712 12.5517468,6.56236044 C12.3175226,6.44382053 12.098094,6.36194957 11.8907293,6.31190451 C11.8788929,6.22103929 11.8722919,6.12948219 11.8700156,6.03123705 L11.8700156,6.00425423 Z M23.2752975,23.3678149 C23.0686157,23.1311963 22.9705102,22.6943974 22.8644378,22.2276177 C22.7585931,21.7606073 22.6381805,21.2564668 22.2600986,20.9301361 C22.2591881,20.9292136 22.2578223,20.9305973 22.2569119,20.9301361 C22.106453,20.7970669 21.9528074,20.7038955 21.7955199,20.6432418 C22.3211016,19.0632477 22.1116883,17.4910948 21.5808713,16.0693077 C20.9294141,14.3244186 19.7933473,12.800927 18.92451,11.7610506 C17.9523319,10.5182265 17.0031436,9.34251349 17.0218087,7.60039187 C17.0507169,4.94085433 17.3077033,0.00645742725 12.6890035,0 C12.5012144,0 12.3063691,0.00761053926 12.1024188,0.0242153522 C6.94083794,0.445331858 8.31044599,5.97035274 8.23396463,7.82040564 C8.13950106,9.17346727 7.86885722,10.2391734 6.95062573,11.5615622 C5.87169235,12.8615807 4.34980447,14.9653183 3.6300603,17.1555392 C3.29044667,18.1891888 3.12951716,19.2449782 3.27883789,20.2419588 C3.23194754,20.284624 3.18983727,20.3291341 3.147727,20.3747973 C2.83087568,20.7175022 2.59551342,21.1330838 2.33465737,21.4125981 C2.09110068,21.6591335 1.74556885,21.7539193 1.36384496,21.8922927 C0.98234868,22.0311274 0.561018367,22.2338445 0.306763391,22.7280683 L0.306763391,22.731297 C0.0766364613,23.1669427 0.144012892,23.6692383 0.214348422,24.1341731 C0.284911576,24.5991079 0.356612845,25.0370598 0.262149268,25.3350239 C-0.0399065536,26.1714914 -0.0786024765,26.7498924 0.133997476,27.1693945 C0.347052676,27.5900498 0.78545472,27.7768539 1.28053491,27.8815565 C2.27092291,28.0909616 3.61253332,28.0381491 4.66938726,28.6057108 L4.66938726,28.6087089 C5.80090158,29.2080966 6.94948762,29.4179629 7.86453238,29.206021 C8.52828127,29.0524264 9.06524411,28.6546028 9.34180614,28.0386104 C10.0576807,28.0349204 10.8438908,27.7254251 12.1024188,27.6553159 C12.9560053,27.585668 14.0203708,27.9627356 15.2470316,27.8937795 C15.2791265,28.028463 15.3292035,28.156689 15.392938,28.2798414 C15.3938485,28.2812251 15.3920275,28.2844538 15.392938,28.2858376 C15.868215,29.249378 16.7532135,29.6887136 17.6948902,29.6135307 C18.6374773,29.5381172 19.6390189,28.9760904 20.449357,27.9991739 L20.3004915,27.8725622 L20.449357,27.9961758 C21.2216821,27.0473953 22.5059315,26.6541841 23.3558761,26.1345918 C23.7808483,25.874911 24.1243316,25.5511171 24.1509635,25.0785718 C24.1773677,24.6064878 23.9044477,24.0783625 23.2752975,23.3710436 L23.2752975,23.3678149 Z" id="Fill-34" fill="#FFFFFF" mask="url(#mask-2)">
            </path>
          </g>
        </g>
        <g id="iOS" transform="translate(114.796915, 14.932932)" fill-rule="nonzero">
          <path d="M70.9965825,77.4645848 L68.4208283,77.4645848 L42.9385584,77.4645848 L41.6015257,77.4645848 C45.1407299,90.0624094 40.3824665,91.8706145 19.5994733,91.8706145 L19.5994733,98.4675826 L46.0255309,98.4675826 L65.3141936,98.4675826 L90.2459206,98.4675826 L90.2459206,91.8706145 C69.5022518,91.8706145 67.4573783,90.0822798 70.9965825,77.4645848" id="Shape" fill="#7A7A7A">
          </path>
          <path d="M101.36351,0 L5.86789728,0 C2.62975998,0 0,2.88496448 0,6.10131003 L0,72.2410701 C0,75.4379227 2.61013491,78.2839012 5.86789728,78.2839012 L101.36351,78.2839012 C104.601647,78.2839012 107.879035,75.4379227 107.879035,72.2410701 L107.879035,6.10131003 C107.879035,2.86547148 104.601647,0 101.36351,0 L101.36351,0 Z M99.577628,8.24554039 L99.577628,70.0578538 L8.30140651,70.0578538 L8.30140651,8.24554039 L99.832754,8.10908936 L99.577628,8.24554039 Z" id="Shape" fill="#A0A1A2">
          </path>
          <rect id="Rectangle-path" fill="#A0A1A2" x="19.5994733" y="92.3975168" width="70.6464474" height="6.68277205">
          </rect>
          <polygon id="Shape" fill="#666666" points="99.609426 8.09810519 99.609426 70.4968331 8.39977425 70.4968331 8.39977425 8.09810519 99.8639828 7.96518033">
          </polygon>
          <path d="M68.7146514,44.5438416 C68.7146514,44.5828728 68.7146514,44.621904 68.7146514,44.6609351 C68.5985415,44.9146379 68.4824315,45.148825 68.3856733,45.4025277 C67.3987388,47.7443989 66.256991,49.9886921 64.5540453,51.9207358 C62.9091545,53.7747172 61.2062087,54.262607 58.8646583,53.4624677 C58.3228119,53.2673117 57.7809655,53.0721558 57.2197675,52.8769999 C55.9425581,52.4281412 54.6459971,52.38911 53.3494362,52.7989375 C52.1883368,53.1502182 51.0272374,53.5600456 49.866138,53.9503575 C49.5565115,53.9503575 49.246885,53.9503575 48.9372585,53.9503575 C47.5632909,53.5795612 46.4602464,52.7794219 45.5120153,51.7255799 C43.6736079,49.6959582 42.4157502,47.2955402 41.4868707,44.7389975 C40.848266,42.9630785 40.4612329,41.1481284 40.2096614,39.2746314 C40.2096614,38.3769141 40.2096614,37.4791968 40.2096614,36.5814796 C40.2483647,36.366808 40.3064197,36.1716521 40.3257713,35.9569806 C40.5192879,34.4542799 40.964376,33.0296416 41.6997389,31.6830657 C43.5381463,28.3654148 47.3117193,26.2772463 51.4529738,27.8189782 C52.0528752,28.0336497 52.6527765,28.2483213 53.2526779,28.4825084 C54.1815574,28.8533047 55.0717336,28.8923358 56.0199647,28.4825084 C57.0649542,28.0336497 58.1292953,27.5847911 59.271043,27.3701196 C62.4447147,26.8041674 65.1732983,27.6043067 67.3600355,30.082787 C67.8438269,30.6292236 67.8244752,30.707286 67.2439255,31.1171135 C64.1476605,33.3418911 63.4316492,37.0303382 64.5346936,40.1333175 C65.2507049,42.221486 66.7988374,43.5680619 68.7146514,44.5438416 Z M61.3803736,18.7442274 C61.6125935,19.3687264 61.4771319,19.9737097 61.3803736,20.5982087 C60.9352855,23.7207036 58.3421635,26.4528867 55.4587667,26.8822297 C54.4137773,27.0383545 54.200909,26.823683 54.317019,25.7698409 C54.6459971,22.4912213 57.1423608,19.6614603 60.3547358,18.9003521 C60.5482524,18.8613209 60.7224173,18.8027742 60.9159338,18.7442274 C61.0707471,18.7442274 61.2255604,18.7442274 61.3803736,18.7442274 Z" id="Combined-Shape" fill="#FFFFFF">
          </path>
        </g>
        <g id="Windows" fill-rule="nonzero">
          <polygon id="Shape" fill="#59B4D9" points="126.017987 95.4681721 126.154498 95.4681721 126.154498 33.5310544 209.075297 33.4138602 209.075297 33.4138602 126.017987 33.5310544">
          </polygon>
          <path d="M126.482057,0 L7.30941153,0 C3.2551246,0 0,3.62461205 0,7.6584545 L0,90.7322243 C0,94.7465796 3.27461636,98.3322173 7.30941153,98.3322173 L126.482057,98.3322173 C130.516852,98.3322173 134.610123,94.7465796 134.610123,90.7322243 L134.610123,7.6584545 C134.610123,3.60512489 130.516852,0 126.482057,0 L126.482057,0 Z M124.259996,10.36717 L124.259996,88.0040217 L10.3501267,88.0040217 L10.3501267,10.36717 L124.571864,10.1917855 L124.259996,10.36717 Z" id="Shape" fill="#A0A1A2">
          </path>
          <path d="M10.383873,87.9845345 L10.2274304,87.9845345 L10.2274304,10.36717 L114.867928,10.2112727 L126.972669,0 C126.933558,0 126.914003,0 126.894448,0 L7.33324362,0 C3.26573783,0 0,3.62461205 0,7.6584545 L0,90.7322243 C0,94.7465796 3.28529314,98.3322173 7.33324362,98.3322173 L10.1687645,98.3322173 L22.4690585,87.9650473 L10.383873,87.9650473 L10.383873,87.9845345 Z" id="Shape" fill="#FFFFFF" opacity="0.2">
          </path>
          <polygon id="Shape" fill="#59B4D9" points="10.5014989 88.7854001 10.6585013 88.7854001 10.6585013 10.6584198 115.516488 10.5014989 115.516488 10.5014989 10.5014989 10.6584198">
          </polygon>
          <path d="M87.456752,98.3322173 L84.2128213,98.3322173 L52.2060385,98.3322173 L50.5349227,98.3322173 C54.9781247,113.801943 49.0210884,116.014677 22.9123613,116.014677 L22.9123613,124.108624 L56.1184155,124.108624 L80.3594249,124.108624 L111.697761,124.108624 L111.697761,116.014677 C85.5890344,116.014677 83.01355,113.801943 87.456752,98.3322173" id="Shape" fill="#7A7A7A">
          </path>
          <rect id="Rectangle-path" fill="#A0A1A2" x="22.9123613" y="116.47117" width="88.7854001" height="7.63745377">
          </rect>
          <rect id="Rectangle-path" fill="#06AEF0" x="10.2663908" y="10.2663908" width="114.561807" height="78.2839012">
          </rect>
          <g id="WindowsLogo" transform="translate(43.915359, 23.867043)" fill="#FFFFFF">
            <path d="M0,6.94157131 C1.47244257,6.74603409 2.92525258,6.55049687 4.39769516,6.35495965 C6.12536111,6.12031499 7.85302706,5.88567032 9.56106045,5.65102566 C11.2298287,5.416381 12.898597,5.20129005 14.5673652,4.96664539 C16.2361335,4.73200073 17.9049017,4.51690978 19.57367,4.28226512 C19.7896282,4.24315767 19.8485259,4.34092629 19.8485259,4.53646351 C19.8485259,5.55325705 19.8485259,6.57005059 19.8485259,7.60639786 C19.8485259,12.6903656 19.8485259,17.793887 19.8485259,22.8778547 C19.8485259,22.9169622 19.8485259,22.9756234 19.8485259,23.0147308 C19.8485259,23.2884829 19.8288933,23.3275904 19.5344048,23.3275904 C19.4558745,23.3275904 19.3773443,23.3275904 19.298814,23.3275904 C17.1392316,23.3275904 14.9796491,23.3080366 12.8200667,23.3471441 C9.8948141,23.4058052 6.96956152,23.3471441 4.04430894,23.4058052 C2.70929434,23.425359 1.35464717,23.425359 0.0196325677,23.4449127 C0,17.9307631 0,12.4361672 0,6.94157131 Z" id="Shape">
            </path>
            <path d="M0,25.3807312 C1.66876825,25.3807312 3.35716907,25.3611774 5.02593732,25.3807312 C8.16714815,25.4198386 11.3279915,25.4002849 14.4692024,25.4393923 C16.1379706,25.458946 17.7871063,25.458946 19.4558745,25.4784998 C19.8092608,25.4784998 19.8092608,25.4784998 19.8092608,25.8304668 C19.8092608,29.1154921 19.7896282,32.3809636 19.8288933,35.6659889 C19.8681585,38.5012786 19.8485259,41.3365683 19.8485259,44.171858 C19.8485259,44.5824862 19.8288933,44.5824862 19.4166094,44.523825 C17.3748224,44.2500729 15.3330353,43.9763208 13.3108809,43.683015 C11.6421126,43.4483703 9.99297694,43.2137256 8.32420869,42.9986347 C6.53764503,42.7444363 4.73144881,42.5097916 2.94488515,42.275147 C2.02215447,42.1578246 1.09942379,42.0209486 0.176693109,41.9036263 C0.117795406,41.9036263 0.058897703,41.8645188 2.23196453e-14,41.8449651 C0,36.3503692 0,30.875327 0,25.3807312 Z" id="Shape">
            </path>
            <path d="M48.4924421,11.5953571 C48.4924421,15.2714569 48.4924421,18.9475566 48.4924421,22.6236564 C48.4924421,23.0929457 48.4924421,23.0929457 48.0016279,23.0929457 C46.3524922,23.0929457 44.683724,23.073392 43.0345883,23.1124994 C40.9535361,23.1516069 38.8528514,23.1124994 36.7717992,23.1516069 C34.7889099,23.1907143 32.8060206,23.1516069 30.8034987,23.1907143 C28.7617116,23.2493755 26.700292,23.1907143 24.658505,23.2298217 C23.9517325,23.2493755 23.2253275,23.2493755 22.5185551,23.2689292 C22.2240666,23.2689292 22.204434,23.2493755 22.204434,22.9756234 C22.204434,16.7184323 22.204434,10.4416876 22.204434,4.18449651 C22.204434,3.96940557 22.2829643,3.87163696 22.4989225,3.85208323 C24.4818119,3.5587774 26.4843338,3.2850253 28.4672231,2.99171947 C30.4893776,2.69841364 32.5311646,2.40510781 34.5533191,2.11180198 C36.9092272,1.7793887 39.2455027,1.42742171 41.6014109,1.09500843 C43.7217282,0.78214888 45.8224129,0.469289328 47.9427302,0.175983498 C48.5709724,0.078214888 48.5120747,-1.31006317e-14 48.5120747,0.645272826 C48.4924421,4.30181884 48.4924421,7.93881113 48.4924421,11.5953571 Z" id="Shape">
            </path>
            <path d="M48.4924421,37.1129644 C48.4924421,40.7890641 48.4924421,44.4847176 48.4924421,48.1608173 C48.4924421,48.5714455 48.4924421,48.5518917 48.0997908,48.5127843 C45.0567428,48.0826024 42.0136948,47.6524205 38.9706468,47.2222386 C36.3791479,46.8507179 33.7876489,46.4987509 31.2157826,46.1272302 C28.5064882,45.7557095 25.7971939,45.3646351 23.1075321,44.9931143 C22.8719413,44.9540069 22.6559831,44.9344532 22.4203923,44.8953457 C22.2829643,44.875792 22.204434,44.7975771 22.2240666,44.6607011 C22.2240666,44.5824862 22.2240666,44.523825 22.2240666,44.4456101 C22.2240666,39.2834275 22.2240666,34.1016912 22.204434,28.9395086 C22.204434,27.9618225 22.1848015,26.9841364 22.1848015,25.9868965 C22.1848015,25.6349295 22.204434,25.6153758 22.5381877,25.6349295 C26.4843338,25.6349295 30.4304799,25.6153758 34.376626,25.6544833 C38.9510142,25.6935907 43.5254025,25.6544833 48.1194233,25.6935907 C48.1979536,25.6935907 48.2764839,25.6935907 48.3550141,25.6935907 C48.4728095,25.6935907 48.5317073,25.7522519 48.5317073,25.8695742 C48.5317073,25.9477891 48.5317073,26.0455577 48.5317073,26.1237726 C48.4924421,29.7803186 48.4924421,33.4368646 48.4924421,37.1129644 C48.4924421,37.1129644 48.4924421,37.1129644 48.4924421,37.1129644 Z" id="Shape">
            </path>
          </g>
        </g>
      </g>
    </g>
  </g>
</svg>