<?xml version="1.0" encoding="utf-8"?>
<!-- Generator: Adobe Illustrator 21.0.0, SVG Export Plug-In . SVG Version: 6.00 Build 0)  -->
<svg version="1.1" id="Calque_1" xmlns="http://www.w3.org/2000/svg" xmlns:xlink="http://www.w3.org/1999/xlink" x="0px" y="0px"
	 viewBox="0 0 329 69" style="enable-background:new 0 0 329 69;" xml:space="preserve">
<style type="text/css">
	.st0{fill:#FFFFFF;}
	.st1{fill:#E95420;}
</style>
<g>
	<path class="st0" d="M82.4,40.1V23.7h6.8v15.4c0,3.1,0.5,5.4,1.4,6.7c0.9,1.4,2.5,2,4.8,2c0.8,0,1.7,0,2.6-0.1s1.6-0.2,2-0.3V23.7
		h6.8v28.4c-1.3,0.3-3,0.7-5.1,1c-2.1,0.4-4.4,0.5-6.9,0.5c-2.3,0-4.3-0.3-5.9-1S86,51,85.1,49.8c-1-1.2-1.6-2.6-2-4.3
		C82.6,43.9,82.4,42.1,82.4,40.1z"/>
	<path class="st0" d="M115.3,52.1V10.7l6.8-1.1v15.2c0.8-0.4,1.7-0.8,2.9-1.1c1.1-0.3,2.4-0.5,3.8-0.5c2.1,0,3.9,0.4,5.5,1.1
		s3,1.8,4.1,3.1c1.1,1.3,1.9,3,2.5,4.8c0.6,1.9,0.9,4,0.9,6.2c0,2.3-0.3,4.5-1,6.3c-0.7,1.9-1.7,3.5-3,4.8s-2.8,2.4-4.7,3.1
		c-1.8,0.7-3.9,1.1-6.2,1.1c-2.2,0-4.4-0.2-6.4-0.5S116.7,52.5,115.3,52.1z M122.1,47.4c0.5,0.1,1.1,0.2,1.9,0.3s1.7,0.2,2.7,0.2
		c2.5,0,4.5-0.9,5.9-2.6c1.4-1.7,2.1-4.1,2.1-7.1c0-2.9-0.6-5.2-1.7-6.8c-1.1-1.7-2.9-2.5-5.4-2.5c-1.1,0-2.2,0.2-3.2,0.5
		s-1.8,0.7-2.4,1.1L122.1,47.4L122.1,47.4z"/>
	<path class="st0" d="M148.3,40.1V23.7h6.8v15.4c0,3.1,0.5,5.4,1.4,6.7c0.9,1.4,2.5,2,4.8,2c0.8,0,1.7,0,2.6-0.1
		c0.9-0.1,1.6-0.2,2-0.3V23.7h6.8v28.4c-1.3,0.3-3,0.7-5.1,1c-2.1,0.4-4.4,0.5-6.9,0.5c-2.3,0-4.3-0.3-5.9-1s-2.9-1.6-3.8-2.8
		c-1-1.2-1.6-2.6-2-4.3C148.5,43.9,148.3,42.1,148.3,40.1z"/>
	<path class="st0" d="M181.2,53V24.7c1.3-0.4,3-0.7,5.1-1.1s4.4-0.5,6.9-0.5c2.4,0,4.4,0.3,6,1s2.9,1.6,3.8,2.7c1,1.2,1.6,2.6,2,4.2
		c0.4,1.7,0.6,3.5,0.6,5.5V53h-6.8V37.6c0-1.6-0.1-2.9-0.3-4s-0.5-2-1-2.7s-1.1-1.2-1.9-1.5c-0.8-0.3-1.8-0.5-2.9-0.5
		c-0.9,0-1.8,0.1-2.7,0.2s-1.6,0.2-2.1,0.3V53H181.2z"/>
	<path class="st0" d="M213.6,41.3V16l6.8-1.1v8.8h10.4v5.7h-10.4v11.9c0,2.3,0.4,4,1.1,5c0.7,1,2,1.5,3.8,1.5c1.2,0,2.3-0.1,3.3-0.4
		c0.9-0.3,1.7-0.5,2.3-0.7l1.1,5.4c-0.8,0.3-1.8,0.7-3.1,1c-1.3,0.4-2.8,0.5-4.5,0.5c-2.1,0-3.8-0.3-5.2-0.8
		c-1.4-0.6-2.5-1.4-3.3-2.4c-0.8-1.1-1.4-2.3-1.7-3.8C213.7,45,213.6,43.3,213.6,41.3z"/>
	<path class="st0" d="M236.9,40.1V23.7h6.8v15.4c0,3.1,0.5,5.4,1.4,6.7c0.9,1.4,2.5,2,4.8,2c0.8,0,1.7,0,2.6-0.1
		c0.9-0.1,1.6-0.2,2-0.3V23.7h6.8v28.4c-1.3,0.3-3,0.7-5.1,1c-2.1,0.4-4.4,0.5-6.9,0.5c-2.3,0-4.3-0.3-5.9-1s-2.9-1.6-3.8-2.8
		c-1-1.2-1.6-2.6-2-4.3C237.1,43.9,236.9,42.1,236.9,40.1z"/>
	<path class="st0" d="M266.8,40.1v-6.2h15v6.2H266.8z"/>
	<path class="st0" d="M287.5,53V21.6c0-3.8,1-6.7,3-8.9c2-2.1,5-3.2,8.9-3.2c1.6,0,2.9,0.1,4.1,0.4c1.2,0.3,2.1,0.5,2.7,0.8
		l-1.3,5.6c-0.6-0.3-1.4-0.5-2.2-0.7c-0.8-0.2-1.7-0.3-2.7-0.3c-1.1,0-2,0.2-2.7,0.5s-1.3,0.8-1.8,1.3c-0.4,0.6-0.8,1.2-0.9,2
		c-0.2,0.8-0.3,1.7-0.3,2.6v2h10.6v5.7h-10.6V53H287.5z"/>
	<path class="st0" d="M309.8,53V25.2c1.3-0.5,2.9-1,4.9-1.4c1.9-0.4,4.1-0.7,6.5-0.7c0.5,0,1,0,1.6,0.1s1.2,0.1,1.8,0.2
		c0.6,0.1,1.2,0.2,1.7,0.3s1,0.3,1.3,0.4l-1.2,5.7c-0.6-0.2-1.3-0.4-2.3-0.6s-2.1-0.3-3.4-0.3c-0.7,0-1.5,0.1-2.4,0.2
		c-0.8,0.2-1.4,0.3-1.7,0.4V53H309.8z"/>
</g>
<path class="st0" d="M35.1,1.9C16.9,1.9,2.2,16.6,2.2,34.8s14.7,32.9,32.9,32.9S68,52.9,68,34.8C68,16.6,53.3,1.9,35.1,1.9z
	 M42.1,14.2c1.2-2,3.8-2.7,5.8-1.5s2.7,3.8,1.5,5.8s-3.8,2.7-5.8,1.5S40.9,16.2,42.1,14.2z M13.8,39c-2.3,0-4.2-1.9-4.2-4.2
	s1.9-4.2,4.2-4.2s4.2,1.9,4.2,4.2S16.1,39,13.8,39z M17.5,39.4c1.4-1.1,2.2-2.8,2.2-4.6c0-1.9-0.9-3.5-2.2-4.6
	c1.1-4.3,3.9-8.1,7.5-10.5l3.1,5.3C25,27.2,23,30.8,23,34.9s2,7.7,5.1,9.9L25,49.9C21.4,47.5,18.7,43.8,17.5,39.4z M47.9,56.9
	c-2,1.2-4.6,0.5-5.8-1.5s-0.5-4.6,1.5-5.8s4.6-0.5,5.8,1.5C50.6,53.1,49.9,55.7,47.9,56.9z M47.9,47.7c-1.6-0.6-3.5-0.5-5.1,0.4
	s-2.6,2.5-2.9,4.2c-1.5,0.4-3.1,0.6-4.8,0.6c-2.9,0-5.6-0.7-8.1-1.9l3-5.3c1.5,0.7,3.3,1.1,5.1,1.1c6.3,0,11.5-4.8,12-11l6.1,0.1
	C52.9,40.5,51,44.6,47.9,47.7z M47.1,33.7c-0.5-6.2-5.7-11-12-11c-1.8,0-3.5,0.4-5.1,1.1l-3-5.3c2.4-1.2,5.2-1.9,8.1-1.9
	c1.7,0,3.3,0.2,4.8,0.6c0.3,1.7,1.3,3.3,2.9,4.2c1.6,0.9,3.5,1,5.1,0.4c3.1,3,5,7.2,5.3,11.7L47.1,33.7z"/>
<g>
	<path class="st1" d="M69.1,34.7c0,18.5-15,33.5-33.5,33.5S2.2,53.1,2.2,34.7c0-18.5,15-33.5,33.5-33.5
		C54.1,1.2,69.1,16.2,69.1,34.7z"/>
	<path class="st0" d="M18.3,34.7c0,2.4-1.9,4.3-4.3,4.3c-2.4,0-4.3-1.9-4.3-4.3c0-2.4,1.9-4.3,4.3-4.3
		C16.4,30.4,18.3,32.3,18.3,34.7z M42.8,55.6c1.2,2.1,3.8,2.8,5.9,1.6c2.1-1.2,2.8-3.8,1.6-5.9c-1.2-2.1-3.8-2.8-5.9-1.6
		C42.3,50.9,41.6,53.5,42.8,55.6z M50.2,18c1.2-2.1,0.5-4.7-1.6-5.9c-2.1-1.2-4.7-0.5-5.9,1.6c-1.2,2.1-0.5,4.7,1.6,5.9
		C46.4,20.8,49,20.1,50.2,18z M35.7,22.4c6.4,0,11.7,4.9,12.2,11.2l6.2-0.1c-0.3-4.7-2.3-8.8-5.4-11.9c-1.6,0.6-3.6,0.5-5.2-0.4
		c-1.7-1-2.7-2.6-3-4.3c-1.5-0.4-3.2-0.6-4.9-0.6c-2.9,0-5.7,0.7-8.2,1.9l3,5.4C32.1,22.8,33.8,22.4,35.7,22.4z M23.4,34.7
		c0-4.1,2.1-7.8,5.2-10l-3.2-5.3c-3.7,2.5-6.5,6.2-7.6,10.7c1.4,1.1,2.3,2.8,2.3,4.7c0,1.9-0.9,3.6-2.3,4.7
		c1.2,4.4,3.9,8.2,7.6,10.7l3.2-5.3C25.5,42.5,23.4,38.8,23.4,34.7z M35.7,46.9c-1.8,0-3.6-0.4-5.2-1.1l-3,5.4
		c2.5,1.2,5.3,1.9,8.2,1.9c1.7,0,3.3-0.2,4.9-0.6c0.3-1.7,1.3-3.4,3-4.3c1.6-1,3.6-1,5.2-0.4c3.1-3.1,5.1-7.3,5.4-11.9l-6.2-0.1
		C47.3,42,42.1,46.9,35.7,46.9z"/>
</g>
</svg>
